<?xml version="1.0" standalone="no"?>
<!DOCTYPE svg PUBLIC "-//W3C//DTD SVG 20010904//EN"
 "http://www.w3.org/TR/2001/REC-SVG-20010904/DTD/svg10.dtd">
<svg version="1.0" xmlns="http://www.w3.org/2000/svg"
 width="192.000000pt" height="192.000000pt" viewBox="0 0 192.000000 192.000000"
 preserveAspectRatio="xMidYMid meet">

<g transform="translate(0.000000,192.000000) scale(0.100000,-0.100000)"
fill="#000000" stroke="none">
<path d="M730 1914 c-356 -32 -537 -110 -612 -261 -32 -65 -33 -72 -37 -210
l-3 -143 882 0 883 0 -5 143 c-4 126 -7 148 -30 199 -62 134 -207 214 -463
254 -97 15 -512 27 -615 18z m610 -129 c41 -9 100 -28 130 -41 126 -57 161
-110 168 -251 l4 -93 -682 0 -682 0 4 93 c2 69 8 102 24 132 43 84 158 142
336 171 122 19 596 12 698 -11z"/>
<path d="M87 1253 c-4 -3 -7 -102 -7 -220 l0 -213 108 0 c154 0 201 29 202
123 0 49 -13 73 -53 97 -18 11 -26 20 -19 20 52 0 73 117 29 158 -13 13 -39
27 -58 32 -38 11 -192 14 -202 3z m201 -59 c15 -10 22 -25 22 -49 0 -52 -20
-65 -101 -65 l-69 0 0 65 0 65 63 0 c40 0 70 -5 85 -16z m23 -193 c25 -31 24
-79 -3 -108 -19 -20 -31 -23 -95 -23 l-73 0 0 81 0 81 76 -4 c65 -3 79 -7 95
-27z"/>
<path d="M490 1093 c0 -185 8 -217 63 -257 41 -30 163 -30 204 0 55 40 63 72
63 257 l0 167 -29 0 -30 0 -3 -176 -3 -176 -28 -24 c-20 -17 -40 -24 -72 -24
-32 0 -52 7 -72 24 l-28 24 -3 176 -3 176 -30 0 -29 0 0 -167z"/>
<path d="M907 1253 c-4 -3 -7 -132 -7 -285 l0 -278 75 0 75 0 0 285 0 285 -68
0 c-38 0 -72 -3 -75 -7z"/>
<path d="M1125 1248 c-3 -7 -4 -106 -3 -218 l3 -205 138 -3 137 -3 0 26 0 25
-105 0 -105 0 -2 193 -3 192 -28 3 c-16 2 -29 -2 -32 -10z"/>
<path d="M1460 1041 l0 -221 91 0 c119 0 172 14 219 59 30 28 40 48 50 94 24
117 -11 213 -92 255 -39 20 -67 25 -158 30 l-110 5 0 -222z m201 159 c19 -5
48 -24 65 -41 26 -27 29 -38 32 -107 5 -133 -40 -182 -170 -182 l-68 0 0 170
0 170 53 0 c28 0 68 -5 88 -10z"/>
<path d="M520 793 c0 -4 12 -24 26 -44 30 -43 26 -71 -12 -95 -33 -22 -64 -12
-93 31 -13 19 -27 32 -32 29 -5 -3 -9 -28 -9 -56 0 -44 4 -54 34 -84 20 -20
44 -34 58 -34 14 0 32 -8 40 -17 9 -10 61 -120 118 -245 56 -125 110 -234 119
-242 27 -24 67 -20 90 10 12 15 21 31 21 37 0 6 -55 120 -122 254 l-123 243
18 31 c37 65 9 146 -59 175 -36 15 -74 19 -74 7z m318 -702 c6 -37 -26 -52
-52 -25 -12 12 -13 20 -5 35 15 28 53 21 57 -10z"/>
<path d="M1274 758 c-33 -63 -75 -203 -69 -229 4 -19 1 -28 -9 -32 -22 -9 -20
-37 5 -63 l21 -23 -43 -120 c-29 -81 -50 -123 -61 -127 -13 -4 -18 -17 -19
-45 -1 -21 -2 -45 -3 -51 -2 -28 31 -16 55 20 18 25 24 43 19 57 -4 13 8 62
38 142 41 112 47 122 67 117 30 -7 57 20 49 50 -4 17 -1 25 13 28 21 6 91 174
95 228 3 28 -2 37 -31 57 -21 14 -49 23 -72 23 -33 0 -41 -4 -55 -32z"/>
<path d="M922 664 c-27 -19 -28 -36 -2 -59 11 -10 20 -24 20 -31 0 -7 -9 -16
-20 -19 -19 -6 -20 -15 -20 -234 0 -230 6 -321 21 -321 14 0 18 57 22 286 3
122 7 227 11 233 10 15 41 14 54 -2 6 -7 11 -76 11 -167 1 -229 11 -350 27
-350 12 0 14 50 14 274 0 266 -1 275 -20 281 -25 8 -25 19 1 44 28 26 22 63
-13 75 -33 12 -50 -1 -25 -18 9 -7 17 -18 17 -24 0 -18 -48 -26 -65 -12 -14
12 -13 16 6 37 21 22 22 23 3 23 -11 0 -30 -7 -42 -16z m68 -84 c0 -5 -5 -10
-11 -10 -5 0 -7 5 -4 10 3 6 8 10 11 10 2 0 4 -4 4 -10z"/>
</g>
</svg>
